NotoSerif-Regular.ufo
<glyph name="quotedbl" format="2">
  <advance width="408"/>
  <unicode hex="0022"/>
  <outline>
    <contour>
      <point x="275" y="479" type="line"/>
      <point x="321" y="479" type="line"/>
      <point x="351" y="714" type="line"/>
      <point x="245" y="714" type="line"/>
    </contour>
    <contour>
      <point x="87" y="479" type="line"/>
      <point x="133" y="479" type="line"/>
      <point x="163" y="714" type="line"/>
      <point x="57" y="714" type="line"/>
    </contour>
  </outline>
</glyph>
<glyph name="uni0289" format="2">
  <advance width="635"/>
  <unicode hex="0289"/>
  <anchor x="318" y="0" name="bottom"/>
  <anchor x="318" y="536" name="top"/>
  <anchor x="595" y="536" name="topright"/>
  <outline>
    <contour>
      <point x="10" y="261" type="line"/>
      <point x="625" y="261" type="line"/>
      <point x="625" y="308" type="line"/>
      <point x="10" y="308" type="line"/>
    </contour>
    <component base="u"/>
  </outline>
</glyph>
<glyph name="uni052A" format="2">
  <advance width="1356"/>
  <unicode hex="052A"/>
  <anchor x="678" y="-210" name="bottom"/>
  <anchor x="678" y="714" name="top"/>
  <outline>
    <contour>
      <point x="540" y="336" type="line"/>
      <point x="806" y="336" type="line"/>
      <point x="806" y="386" type="line"/>
      <point x="540" y="386" type="line"/>
    </contour>
    <component base="afii10021"/>
    <component base="afii10028" xOffset="656"/>
  </outline>
</glyph>
<glyph name="uni052D" format="2">
  <advance width="640"/>
  <unicode hex="052D"/>
  <anchor x="320" y="-210" name="bottom"/>
  <anchor x="320" y="536" name="top"/>
  <outline>
    <contour>
      <point x="13" y="-210" type="line"/>
      <point x="62" y="-210" type="line"/>
      <point x="67" y="-137" type="line" smooth="yes"/>
      <point x="73" y="-37"/>
      <point x="101" y="0"/>
      <point x="164" y="0" type="curve" smooth="yes"/>
      <point x="466" y="0" type="line" smooth="yes"/>
      <point x="524" y="0"/>
      <point x="557" y="-46"/>
      <point x="563" y="-137" type="curve" smooth="yes"/>
      <point x="568" y="-210" type="line"/>
      <point x="617" y="-210" type="line"/>
      <point x="617" y="46" type="line"/>
      <point x="594" y="46" type="line" smooth="yes"/>
      <point x="546" y="46"/>
      <point x="522" y="67"/>
      <point x="522" y="109" type="curve" smooth="yes"/>
      <point x="522" y="427" type="line" smooth="yes"/>
      <point x="522" y="472"/>
      <point x="549" y="494"/>
      <point x="604" y="494" type="curve" smooth="yes"/>
      <point x="617" y="494" type="line"/>
      <point x="617" y="536" type="line"/>
      <point x="414" y="536" type="line"/>
      <point x="225" y="256" type="line"/>
      <point x="204" y="269"/>
      <point x="194" y="292"/>
      <point x="194" y="322" type="curve" smooth="yes"/>
      <point x="194" y="427" type="line" smooth="yes"/>
      <point x="194" y="472"/>
      <point x="221" y="494"/>
      <point x="276" y="494" type="curve" smooth="yes"/>
      <point x="279" y="494" type="line"/>
      <point x="279" y="536" type="line"/>
      <point x="15" y="536" type="line"/>
      <point x="15" y="494" type="line"/>
      <point x="18" y="494" type="line" smooth="yes"/>
      <point x="73" y="494"/>
      <point x="100" y="471"/>
      <point x="100" y="426" type="curve" smooth="yes"/>
      <point x="100" y="312" type="line" smooth="yes"/>
      <point x="100" y="252"/>
      <point x="128" y="208"/>
      <point x="179" y="189" type="curve"/>
      <point x="82" y="46" type="line"/>
      <point x="13" y="46" type="line"/>
    </contour>
    <contour>
      <point x="139" y="46" type="line"/>
      <point x="229" y="179" type="line"/>
      <point x="232" y="179"/>
      <point x="236" y="179"/>
      <point x="239" y="179" type="curve" smooth="yes"/>
      <point x="297" y="179"/>
      <point x="360" y="199"/>
      <point x="428" y="243" type="curve"/>
      <point x="428" y="46" type="line"/>
    </contour>
    <contour>
      <point x="274" y="245" type="curve"/>
      <point x="428" y="471" type="line"/>
      <point x="428" y="286" type="line"/>
      <point x="371" y="257"/>
      <point x="319" y="245"/>
    </contour>
  </outline>
</glyph>
<glyph name="uni1ABF" format="2">
  <unicode hex="1ABF"/>
  <anchor x="0" y="0" name="_bottom"/>
  <outline>
    <contour>
      <point x="-64" y="-278" type="line"/>
      <point x="0" y="-111" type="line"/>
      <point x="62" y="-278" type="line"/>
      <point x="98" y="-278" type="line"/>
      <point x="156" y="-112" type="line" smooth="yes"/>
      <point x="165" y="-85"/>
      <point x="172" y="-80"/>
      <point x="190" y="-80" type="curve" smooth="yes"/>
      <point x="195" y="-80" type="line"/>
      <point x="195" y="-64" type="line"/>
      <point x="99" y="-64" type="line"/>
      <point x="99" y="-80" type="line"/>
      <point x="102" y="-80" type="line" smooth="yes"/>
      <point x="122" y="-80"/>
      <point x="132" y="-86"/>
      <point x="132" y="-100" type="curve" smooth="yes"/>
      <point x="132" y="-104"/>
      <point x="130" y="-113"/>
      <point x="128" y="-120" type="curve" smooth="yes"/>
      <point x="105" y="-184" type="line" smooth="yes"/>
      <point x="96" y="-210"/>
      <point x="91" y="-230"/>
      <point x="88" y="-243" type="curve"/>
      <point x="87" y="-243" type="line"/>
      <point x="84" y="-230"/>
      <point x="74" y="-202"/>
      <point x="67" y="-183" type="curve" smooth="yes"/>
      <point x="22" y="-65" type="line"/>
      <point x="-6" y="-65" type="line"/>
      <point x="-53" y="-186" type="line" smooth="yes"/>
      <point x="-61" y="-205"/>
      <point x="-69" y="-230"/>
      <point x="-71" y="-243" type="curve"/>
      <point x="-73" y="-243" type="line"/>
      <point x="-75" y="-230"/>
      <point x="-83" y="-201"/>
      <point x="-89" y="-182" type="curve" smooth="yes"/>
      <point x="-110" y="-114" type="line"/>
      <point x="-111" y="-108"/>
      <point x="-113" y="-102"/>
      <point x="-113" y="-97" type="curve" smooth="yes"/>
      <point x="-113" y="-84"/>
      <point x="-104" y="-80"/>
      <point x="-86" y="-80" type="curve" smooth="yes"/>
      <point x="-80" y="-80" type="line"/>
      <point x="-80" y="-64" type="line"/>
      <point x="-192" y="-64" type="line"/>
      <point x="-192" y="-80" type="line"/>
      <point x="-190" y="-80" type="line" smooth="yes"/>
      <point x="-173" y="-80"/>
      <point x="-165" y="-85"/>
      <point x="-158" y="-102" type="curve"/>
      <point x="-99" y="-278" type="line"/>
    </contour>
  </outline>
</glyph>
<glyph name="uni1AC0" format="2">
  <unicode hex="1AC0"/>
  <anchor x="0" y="0" name="_bottom"/>
  <outline>
    <contour>
      <point x="64" y="-64" type="line"/>
      <point x="0" y="-231" type="line"/>
      <point x="-62" y="-64" type="line"/>
      <point x="-98" y="-64" type="line"/>
      <point x="-156" y="-230" type="line" smooth="yes"/>
      <point x="-165" y="-257"/>
      <point x="-172" y="-262"/>
      <point x="-190" y="-262" type="curve" smooth="yes"/>
      <point x="-195" y="-262" type="line"/>
      <point x="-195" y="-278" type="line"/>
      <point x="-99" y="-278" type="line"/>
      <point x="-99" y="-262" type="line"/>
      <point x="-102" y="-262" type="line" smooth="yes"/>
      <point x="-122" y="-262"/>
      <point x="-132" y="-256"/>
      <point x="-132" y="-242" type="curve" smooth="yes"/>
      <point x="-132" y="-238"/>
      <point x="-130" y="-229"/>
      <point x="-128" y="-222" type="curve" smooth="yes"/>
      <point x="-105" y="-158" type="line" smooth="yes"/>
      <point x="-96" y="-132"/>
      <point x="-91" y="-112"/>
      <point x="-88" y="-99" type="curve"/>
      <point x="-87" y="-99" type="line"/>
      <point x="-84" y="-112"/>
      <point x="-74" y="-140"/>
      <point x="-67" y="-159" type="curve" smooth="yes"/>
      <point x="-22" y="-277" type="line"/>
      <point x="6" y="-277" type="line"/>
      <point x="53" y="-156" type="line" smooth="yes"/>
      <point x="61" y="-137"/>
      <point x="69" y="-112"/>
      <point x="71" y="-99" type="curve"/>
      <point x="73" y="-99" type="line"/>
      <point x="75" y="-112"/>
      <point x="83" y="-141"/>
      <point x="89" y="-160" type="curve" smooth="yes"/>
      <point x="110" y="-228" type="line"/>
      <point x="111" y="-234"/>
      <point x="113" y="-240"/>
      <point x="113" y="-245" type="curve" smooth="yes"/>
      <point x="113" y="-258"/>
      <point x="104" y="-262"/>
      <point x="86" y="-262" type="curve" smooth="yes"/>
      <point x="80" y="-262" type="line"/>
      <point x="80" y="-278" type="line"/>
      <point x="192" y="-278" type="line"/>
      <point x="192" y="-262" type="line"/>
      <point x="190" y="-262" type="line" smooth="yes"/>
      <point x="173" y="-262"/>
      <point x="165" y="-257"/>
      <point x="158" y="-240" type="curve"/>
      <point x="99" y="-64" type="line"/>
    </contour>
  </outline>
</glyph>
<glyph name="uni1D2F" format="2">
  <advance width="425"/>
  <unicode hex="1D2F"/>
  <anchor x="213" y="287" name="bottom"/>
  <anchor x="213" y="715" name="top"/>
  <anchor x="412.1" y="715.4" name="topright"/>
  <outline>
    <contour>
      <point x="17" y="497" type="line"/>
      <point x="414" y="497" type="line"/>
      <point x="414" y="526" type="line"/>
      <point x="17" y="526" type="line"/>
    </contour>
    <component base="B" xScale="0.65" yScale="0.6" yOffset="287"/>
  </outline>
</glyph>
<glyph name="uni1D7A" format="2">
  <advance width="964"/>
  <unicode hex="1D7A"/>
  <anchor x="216" y="0" name="bottom_1"/>
  <anchor x="650" y="0" name="bottom_2"/>
  <anchor x="156" y="268" name="center_1"/>
  <anchor x="650" y="268" name="center_2"/>
  <anchor x="166" y="659" name="top_1"/>
  <anchor x="484" y="760" name="top_2"/>
  <anchor x="208" y="980" name="topright_1"/>
  <anchor x="877" y="760" name="topright_2"/>
  <outline>
    <contour>
      <point x="14" y="-110" type="line"/>
      <point x="78" y="-110" type="line"/>
      <point x="726" y="760" type="line"/>
      <point x="662" y="760" type="line"/>
    </contour>
    <component base="t"/>
    <component base="h" xOffset="332"/>
  </outline>
</glyph>
<glyph name="uni1D7D" format="2">
  <advance width="614"/>
  <unicode hex="1D7D"/>
  <anchor x="157" y="-240" name="bottom"/>
  <anchor x="307" y="536" name="top"/>
  <anchor x="594" y="536" name="topright"/>
  <outline>
    <contour>
      <point x="10" y="241" type="line"/>
      <point x="605" y="241" type="line"/>
      <point x="605" y="288" type="line"/>
      <point x="10" y="288" type="line"/>
    </contour>
    <component base="p"/>
  </outline>
</glyph>
<glyph name="uni1D83" format="2">
  <advance width="737"/>
  <unicode hex="1D83"/>
  <anchor x="307" y="-240" name="bottom"/>
  <anchor x="307" y="536" name="top"/>
  <anchor x="620" y="536" name="topright"/>
  <outline>
    <contour>
      <point x="613" y="-197" type="curve" smooth="yes"/>
      <point x="688" y="-197"/>
      <point x="717" y="-142"/>
      <point x="717" y="-49" type="curve" smooth="yes"/>
      <point x="717" y="122" type="line"/>
      <point x="486" y="122" type="line"/>
      <point x="486" y="70" type="line"/>
      <point x="661" y="70" type="line"/>
      <point x="661" y="-49" type="line" smooth="yes"/>
      <point x="661" y="-104"/>
      <point x="637" y="-121"/>
      <point x="604" y="-121" type="curve" smooth="yes"/>
      <point x="582" y="-121"/>
      <point x="568" y="-116"/>
      <point x="552" y="-105" type="curve"/>
      <point x="543" y="-114"/>
      <point x="537" y="-126"/>
      <point x="537" y="-142" type="curve" smooth="yes"/>
      <point x="537" y="-178"/>
      <point x="566" y="-197"/>
    </contour>
    <component base="uni0261"/>
  </outline>
</glyph>
<glyph name="uni2034" format="2">
  <advance width="564"/>
  <unicode hex="2034"/>
  <outline>
    <contour>
      <point x="396" y="479" type="line"/>
      <point x="442" y="479" type="line"/>
      <point x="544" y="714" type="line"/>
      <point x="438" y="714" type="line"/>
    </contour>
    <contour>
      <point x="20" y="479" type="line"/>
      <point x="66" y="479" type="line"/>
      <point x="168" y="714" type="line"/>
      <point x="62" y="714" type="line"/>
    </contour>
    <contour>
      <point x="208" y="479" type="line"/>
      <point x="254" y="479" type="line"/>
      <point x="356" y="714" type="line"/>
      <point x="250" y="714" type="line"/>
    </contour>
  </outline>
</glyph>
<glyph name="primeReversed" format="2">
  <advance width="188"/>
  <unicode hex="2035"/>
  <outline>
    <contour>
      <point x="122" y="479" type="line"/>
      <point x="168" y="479" type="line"/>
      <point x="126" y="714" type="line"/>
      <point x="20" y="714" type="line"/>
    </contour>
  </outline>
</glyph>
<glyph name="tripleprimeReversed" format="2">
  <advance width="564"/>
  <unicode hex="2037"/>
  <outline>
    <contour>
      <point x="498" y="479" type="line"/>
      <point x="544" y="479" type="line"/>
      <point x="502" y="714" type="line"/>
      <point x="396" y="714" type="line"/>
    </contour>
    <contour>
      <point x="122" y="479" type="line"/>
      <point x="168" y="479" type="line"/>
      <point x="126" y="714" type="line"/>
      <point x="20" y="714" type="line"/>
    </contour>
    <contour>
      <point x="310" y="479" type="line"/>
      <point x="356" y="479" type="line"/>
      <point x="314" y="714" type="line"/>
      <point x="208" y="714" type="line"/>
    </contour>
  </outline>
</glyph>
<glyph name="quadrupleprime" format="2">
  <advance width="724"/>
  <unicode hex="2057"/>
  <outline>
    <contour>
      <point x="520" y="479" type="line"/>
      <point x="566" y="479" type="line"/>
      <point x="678" y="714" type="line"/>
      <point x="572" y="714" type="line"/>
    </contour>
    <contour>
      <point x="16" y="479" type="line"/>
      <point x="62" y="479" type="line"/>
      <point x="174" y="714" type="line"/>
      <point x="68" y="714" type="line"/>
    </contour>
    <contour>
      <point x="184" y="479" type="line"/>
      <point x="230" y="479" type="line"/>
      <point x="342" y="714" type="line"/>
      <point x="236" y="714" type="line"/>
    </contour>
    <contour>
      <point x="352" y="479" type="line"/>
      <point x="398" y="479" type="line"/>
      <point x="510" y="714" type="line"/>
      <point x="404" y="714" type="line"/>
    </contour>
  </outline>
</glyph>
<glyph name="uni20AD" format="2">
  <advance width="700"/>
  <unicode hex="20AD"/>
  <anchor x="399" y="0" name="bottom"/>
  <anchor x="370" y="714" name="top"/>
  <anchor x="680" y="714" name="topright"/>
  <outline>
    <contour>
      <point x="10" y="350" type="line"/>
      <point x="583" y="350" type="line"/>
      <point x="583" y="400" type="line"/>
      <point x="10" y="400" type="line"/>
    </contour>
    <component base="K"/>
  </outline>
</glyph>
<glyph name="uni20B2" format="2">
  <advance width="714"/>
  <unicode hex="20B2"/>
  <anchor x="401" y="0" name="bottom"/>
  <anchor x="407" y="714" name="top"/>
  <anchor x="694" y="714" name="topright"/>
  <outline>
    <contour>
      <point x="363" y="-79" type="line"/>
      <point x="413" y="-79" type="line"/>
      <point x="413" y="780" type="line"/>
      <point x="363" y="780" type="line"/>
    </contour>
    <component base="G"/>
  </outline>
</glyph>
<glyph name="uni20B5" format="2">
  <advance width="614"/>
  <unicode hex="20B5"/>
  <anchor x="357" y="0" name="bottom"/>
  <anchor x="375" y="714" name="top"/>
  <anchor x="594" y="714" name="topright"/>
  <outline>
    <contour>
      <point x="343" y="-79" type="line"/>
      <point x="393" y="-79" type="line"/>
      <point x="393" y="780" type="line"/>
      <point x="343" y="780" type="line"/>
    </contour>
    <component base="C"/>
  </outline>
</glyph>
<glyph name="versicle" format="2">
  <advance width="675"/>
  <unicode hex="2123"/>
  <anchor x="338" y="0" name="bottom"/>
  <anchor x="348" y="714" name="top"/>
  <anchor x="655" y="714" name="topright"/>
  <outline>
    <contour>
      <point x="114" y="-121" type="line"/>
      <point x="169" y="-121" type="line"/>
      <point x="481" y="797" type="line"/>
      <point x="261" y="873" type="line"/>
      <point x="244" y="825" type="line"/>
      <point x="416" y="767" type="line"/>
    </contour>
    <component base="V"/>
  </outline>
</glyph>
<glyph name="uni2C61" format="2">
  <advance width="310"/>
  <unicode hex="2C61"/>
  <anchor x="155" y="0" name="bottom"/>
  <anchor x="155" y="760" name="top"/>
  <anchor x="155" y="268" name="center"/>
  <anchor x="240" y="760" name="topright"/>
  <outline>
    <contour>
      <point x="10" y="402" type="line"/>
      <point x="300" y="402" type="line"/>
      <point x="300" y="449" type="line"/>
      <point x="10" y="449" type="line"/>
    </contour>
    <contour>
      <point x="10" y="285" type="line"/>
      <point x="300" y="285" type="line"/>
      <point x="300" y="332" type="line"/>
      <point x="10" y="332" type="line"/>
    </contour>
    <component base="l"/>
  </outline>
</glyph>
<glyph name="uni2C66" format="2">
  <advance width="352"/>
  <unicode hex="2C66"/>
  <anchor x="176" y="-207" name="bottom"/>
  <anchor x="176" y="714" name="top"/>
  <anchor x="156" y="268" name="center"/>
  <anchor x="208" y="980" name="topright"/>
  <outline>
    <contour>
      <point x="95" y="-207" type="line"/>
      <point x="146" y="-207" type="line"/>
      <point x="354" y="714" type="line"/>
      <point x="303" y="714" type="line"/>
    </contour>
    <component base="t"/>
  </outline>
</glyph>
<glyph name="olowringinside" format="2">
  <advance width="577"/>
  <unicode hex="2C7A"/>
  <anchor x="289" y="0" name="bottom"/>
  <anchor x="289" y="536" name="top"/>
  <outline>
    <contour>
      <point x="287" y="-10" type="curve" smooth="yes"/>
      <point x="441" y="-10"/>
      <point x="522" y="81"/>
      <point x="522" y="269" type="curve" smooth="yes"/>
      <point x="522" y="457"/>
      <point x="435" y="546"/>
      <point x="290" y="546" type="curve" smooth="yes"/>
      <point x="135" y="546"/>
      <point x="55" y="456"/>
      <point x="55" y="269" type="curve" smooth="yes"/>
      <point x="55" y="81"/>
      <point x="143" y="-10"/>
    </contour>
    <contour>
      <point x="288" y="42" type="curve" smooth="yes"/>
      <point x="251" y="42"/>
      <point x="222" y="59"/>
      <point x="222" y="102" type="curve" smooth="yes"/>
      <point x="222" y="145"/>
      <point x="251" y="162"/>
      <point x="288" y="162" type="curve" smooth="yes"/>
      <point x="325" y="162"/>
      <point x="354" y="145"/>
      <point x="354" y="102" type="curve" smooth="yes"/>
      <point x="354" y="59"/>
      <point x="325" y="42"/>
    </contour>
    <contour>
      <point x="168" y="98" type="curve"/>
      <point x="155" y="137"/>
      <point x="152" y="192"/>
      <point x="152" y="269" type="curve" smooth="yes"/>
      <point x="152" y="417"/>
      <point x="188" y="493"/>
      <point x="288" y="493" type="curve" smooth="yes"/>
      <point x="388" y="493"/>
      <point x="425" y="417"/>
      <point x="425" y="269" type="curve" smooth="yes"/>
      <point x="425" y="190"/>
      <point x="422" y="135"/>
      <point x="408" y="98" type="curve"/>
      <point x="408" y="173"/>
      <point x="355" y="211"/>
      <point x="288" y="211" type="curve" smooth="yes"/>
      <point x="221" y="211"/>
      <point x="168" y="173"/>
    </contour>
  </outline>
</glyph>
<glyph name="uni2E4A" format="2">
  <advance width="288"/>
  <unicode hex="2E4A"/>
  <outline>
    <contour>
      <point x="136" y="221" type="curve" smooth="yes"/>
      <point x="170" y="221"/>
      <point x="199" y="241"/>
      <point x="199" y="289" type="curve" smooth="yes"/>
      <point x="199" y="338"/>
      <point x="170" y="356"/>
      <point x="136" y="356" type="curve" smooth="yes"/>
      <point x="102" y="356"/>
      <point x="75" y="338"/>
      <point x="75" y="289" type="curve" smooth="yes"/>
      <point x="75" y="241"/>
      <point x="102" y="221"/>
    </contour>
    <component base="slash"/>
  </outline>
</glyph>
<glyph name="uni2E4C" format="2">
  <advance width="333"/>
  <unicode hex="2E4C"/>
  <outline>
    <contour>
      <point x="142" y="129" type="curve" smooth="yes"/>
      <point x="108" y="129"/>
      <point x="79" y="112"/>
      <point x="79" y="61" type="curve" smooth="yes"/>
      <point x="79" y="9"/>
      <point x="108" y="-7"/>
      <point x="142" y="-7" type="curve" smooth="yes"/>
      <point x="177" y="-7"/>
      <point x="205" y="9"/>
      <point x="205" y="61" type="curve" smooth="yes"/>
      <point x="205" y="112"/>
      <point x="177" y="129"/>
    </contour>
    <component base="uni2E45" xScale="0" xyScale="-1" yxScale="1" yScale="0" xOffset="-112" yOffset="591"/>
  </outline>
</glyph>
<glyph name="uniA680" format="2">
  <advance width="682"/>
  <unicode hex="A680"/>
  <anchor x="341" y="0" name="bottom"/>
  <anchor x="341" y="714" name="top"/>
  <outline>
    <contour>
      <point x="262" y="714" type="line"/>
      <point x="320" y="714" type="line"/>
      <point x="320" y="839" type="line"/>
      <point x="262" y="839" type="line"/>
    </contour>
    <component base="afii10021"/>
  </outline>
</glyph>
<glyph name="uniA741" format="2">
  <advance width="595"/>
  <unicode hex="A741"/>
  <anchor x="293" y="760" name="top"/>
  <anchor x="293" y="0" name="bottom"/>
  <anchor x="455" y="860" name="topright"/>
  <outline>
    <contour>
      <point x="17" y="593" type="line"/>
      <point x="331" y="593" type="line"/>
      <point x="331" y="640" type="line"/>
      <point x="17" y="640" type="line"/>
    </contour>
    <component base="k"/>
  </outline>
</glyph>
<glyph name="uniA745" format="2">
  <advance width="585"/>
  <unicode hex="A745"/>
  <anchor x="293" y="0" name="bottom"/>
  <anchor x="151" y="760" name="top"/>
  <anchor x="455" y="860" name="topright"/>
  <outline>
    <contour>
      <point x="280" y="91" type="line"/>
      <point x="503" y="254" type="line"/>
      <point x="476" y="292" type="line"/>
      <point x="252" y="129" type="line"/>
    </contour>
    <contour>
      <point x="17" y="593" type="line"/>
      <point x="331" y="593" type="line"/>
      <point x="331" y="640" type="line"/>
      <point x="17" y="640" type="line"/>
    </contour>
    <component base="k"/>
  </outline>
</glyph>
<glyph name="uniA749" format="2">
  <advance width="330"/>
  <unicode hex="A749"/>
  <anchor x="155" y="0" name="bottom"/>
  <anchor x="155" y="268" name="center"/>
  <anchor x="155" y="760" name="top"/>
  <anchor x="240" y="760" name="topright"/>
  <outline>
    <contour>
      <point x="23" y="593" type="line"/>
      <point x="303" y="593" type="line"/>
      <point x="303" y="640" type="line"/>
      <point x="23" y="640" type="line"/>
    </contour>
    <component base="l"/>
  </outline>
</glyph>
<glyph name="uniA74A" format="2">
  <advance width="742"/>
  <unicode hex="A74A"/>
  <anchor x="371" y="0" name="bottom"/>
  <anchor x="371" y="357" name="center"/>
  <anchor x="371" y="714" name="top"/>
  <anchor x="722" y="714" name="topright"/>
  <outline>
    <contour>
      <point x="-1" y="348" type="line"/>
      <point x="743" y="348" type="line"/>
      <point x="743" y="398" type="line"/>
      <point x="-1" y="398" type="line"/>
    </contour>
    <component base="O"/>
  </outline>
</glyph>
<glyph name="uniA74B" format="2">
  <advance width="577"/>
  <unicode hex="A74B"/>
  <anchor x="289" y="0" name="bottom"/>
  <anchor x="289" y="268" name="center"/>
  <anchor x="289" y="536" name="top"/>
  <anchor x="557" y="536" name="topright"/>
  <outline>
    <contour>
      <point x="-1" y="252" type="line"/>
      <point x="578" y="252" type="line"/>
      <point x="578" y="299" type="line"/>
      <point x="-1" y="299" type="line"/>
    </contour>
    <component base="o"/>
  </outline>
</glyph>
<glyph name="uniA750" format="2">
  <advance width="604"/>
  <unicode hex="A750"/>
  <anchor x="184" y="0" name="bottom"/>
  <anchor x="302" y="714" name="top"/>
  <anchor x="589" y="714" name="topright"/>
  <outline>
    <contour>
      <point x="38" y="138" type="line"/>
      <point x="349" y="138" type="line"/>
      <point x="349" y="187" type="line"/>
      <point x="38" y="187" type="line"/>
    </contour>
    <component base="P"/>
  </outline>
</glyph>
<glyph name="uniA75E" format="2">
  <advance width="675"/>
  <unicode hex="A75E"/>
  <anchor x="338" y="0" name="bottom"/>
  <anchor x="348" y="714" name="top"/>
  <anchor x="655" y="714" name="topright"/>
  <outline>
    <contour>
      <point x="122" y="0" type="line"/>
      <point x="176" y="0" type="line"/>
      <point x="416" y="714" type="line"/>
      <point x="362" y="714" type="line"/>
    </contour>
    <component base="V"/>
  </outline>
</glyph>
<glyph name="uniA765" format="2">
  <advance width="614"/>
  <unicode hex="A765"/>
  <anchor x="307" y="-240" name="bottom"/>
  <anchor x="307" y="760" name="top"/>
  <outline>
    <contour>
      <point x="18" y="453" type="line"/>
      <point x="424" y="686" type="line"/>
      <point x="424" y="740" type="line"/>
      <point x="18" y="507" type="line"/>
    </contour>
    <component base="thorn"/>
  </outline>
</glyph>
<glyph name="uniA792" format="2">
  <advance width="664"/>
  <unicode hex="A792"/>
  <anchor x="407" y="0" name="bottom"/>
  <anchor x="425" y="714" name="top"/>
  <anchor x="644" y="714" name="topright"/>
  <outline>
    <contour>
      <point x="15" y="348" type="line"/>
      <point x="332" y="348" type="line"/>
      <point x="332" y="398" type="line"/>
      <point x="15" y="398" type="line"/>
    </contour>
    <component base="C" xOffset="50"/>
  </outline>
</glyph>
<glyph name="uniA793" format="2">
  <advance width="537"/>
  <unicode hex="A793"/>
  <anchor x="317" y="0" name="bottom"/>
  <anchor x="330" y="536" name="top"/>
  <anchor x="523" y="536" name="topright"/>
  <outline>
    <contour>
      <point x="15" y="252" type="line"/>
      <point x="304" y="252" type="line"/>
      <point x="304" y="299" type="line"/>
      <point x="15" y="299" type="line"/>
    </contour>
    <component base="c" xOffset="51"/>
  </outline>
</glyph>
<glyph name="uniA799" format="2">
  <advance width="369"/>
  <unicode hex="A799"/>
  <anchor x="185" y="0" name="bottom"/>
  <anchor x="285" y="770" name="top"/>
  <anchor x="439" y="770" name="topright"/>
  <outline>
    <contour>
      <point x="27" y="252" type="line"/>
      <point x="333" y="252" type="line"/>
      <point x="333" y="299" type="line"/>
      <point x="27" y="299" type="line"/>
    </contour>
    <component base="f"/>
  </outline>
</glyph>
<glyph name="uniA7A0" format="2">
  <advance width="714"/>
  <unicode hex="A7A0"/>
  <anchor x="401" y="0" name="bottom"/>
  <anchor x="407" y="714" name="top"/>
  <anchor x="694" y="714" name="topright"/>
  <outline>
    <contour>
      <point x="-1" y="217" type="line"/>
      <point x="695" y="373" type="line"/>
      <point x="695" y="423" type="line"/>
      <point x="-1" y="267" type="line"/>
    </contour>
    <component base="G"/>
  </outline>
</glyph>
<glyph name="uniA7A2" format="2">
  <advance width="700"/>
  <unicode hex="A7A2"/>
  <anchor x="399" y="0" name="bottom"/>
  <anchor x="370" y="714" name="top"/>
  <anchor x="680" y="714" name="topright"/>
  <outline>
    <contour>
      <point x="38" y="111" type="line"/>
      <point x="628" y="243" type="line"/>
      <point x="628" y="293" type="line"/>
      <point x="38" y="161" type="line"/>
    </contour>
    <component base="K"/>
  </outline>
</glyph>
<glyph name="uniA7A5" format="2">
  <advance width="645"/>
  <unicode hex="A7A5"/>
  <anchor x="344" y="0" name="bottom"/>
  <anchor x="344" y="536" name="top"/>
  <anchor x="585" y="536" name="topright"/>
  <outline>
    <contour>
      <point x="28" y="181" type="line"/>
      <point x="617" y="295" type="line"/>
      <point x="617" y="340" type="line"/>
      <point x="28" y="226" type="line"/>
    </contour>
    <component base="n"/>
  </outline>
</glyph>
<glyph name="uniA7A6" format="2">
  <advance width="656"/>
  <unicode hex="A7A6"/>
  <anchor x="368" y="0" name="bottom"/>
  <anchor x="328" y="714" name="top"/>
  <anchor x="636" y="714" name="topright"/>
  <outline>
    <contour>
      <point x="38" y="422" type="line"/>
      <point x="656" y="560" type="line"/>
      <point x="656" y="610" type="line"/>
      <point x="38" y="472" type="line"/>
    </contour>
    <component base="R"/>
  </outline>
</glyph>
<glyph name="uniA7A7" format="2">
  <advance width="471"/>
  <unicode hex="A7A7"/>
  <anchor x="166" y="0" name="bottom"/>
  <anchor x="246" y="536" name="top"/>
  <anchor x="451" y="536" name="topright"/>
  <outline>
    <contour>
      <point x="28" y="181" type="line"/>
      <point x="329" y="241" type="line"/>
      <point x="329" y="286" type="line"/>
      <point x="28" y="226" type="line"/>
    </contour>
    <component base="r"/>
  </outline>
</glyph>
<glyph name="uniA7B9" format="2">
  <advance width="635"/>
  <unicode hex="A7B9"/>
  <anchor x="530" y="0" name="bottom"/>
  <anchor x="308" y="536" name="top"/>
  <anchor x="595" y="536" name="topright"/>
  <outline>
    <contour>
      <point x="104" y="-11" type="line"/>
      <point x="163" y="-11" type="line"/>
      <point x="575" y="582" type="line"/>
      <point x="517" y="582" type="line"/>
    </contour>
    <component base="u"/>
  </outline>
</glyph>
<glyph name="uniA7C3" format="2">
  <advance width="856"/>
  <unicode hex="A7C3"/>
  <outline>
    <contour>
      <point x="78" y="441" type="curve" smooth="yes"/>
      <point x="239" y="0" type="line"/>
      <point x="330" y="0" type="line"/>
      <point x="508" y="406" type="line" smooth="yes"/>
      <point x="538" y="472"/>
      <point x="574" y="494"/>
      <point x="612" y="494" type="curve" smooth="yes"/>
      <point x="659" y="494"/>
      <point x="687" y="463"/>
      <point x="687" y="404" type="curve" smooth="yes"/>
      <point x="687" y="350"/>
      <point x="670" y="321"/>
      <point x="617" y="307" type="curve"/>
      <point x="591" y="313"/>
      <point x="568" y="316"/>
      <point x="547" y="316" type="curve" smooth="yes"/>
      <point x="518" y="316"/>
      <point x="504" y="307"/>
      <point x="504" y="294" type="curve" smooth="yes"/>
      <point x="504" y="280"/>
      <point x="518" y="273"/>
      <point x="546" y="273" type="curve" smooth="yes"/>
      <point x="568" y="273"/>
      <point x="584" y="275"/>
      <point x="612" y="282" type="curve"/>
      <point x="687" y="265"/>
      <point x="712" y="221"/>
      <point x="712" y="154" type="curve" smooth="yes"/>
      <point x="712" y="75"/>
      <point x="671" y="39"/>
      <point x="610" y="39" type="curve" smooth="yes"/>
      <point x="566" y="39" type="line"/>
      <point x="479" y="169"/>
      <point x="427" y="291"/>
      <point x="427" y="419" type="curve" smooth="yes"/>
      <point x="427" y="485"/>
      <point x="440" y="553"/>
      <point x="470" y="624" type="curve"/>
      <point x="378" y="624" type="line"/>
      <point x="352" y="551"/>
      <point x="340" y="481"/>
      <point x="340" y="413" type="curve" smooth="yes"/>
      <point x="340" y="273"/>
      <point x="391" y="139"/>
      <point x="486" y="0" type="curve"/>
      <point x="614" y="0" type="line" smooth="yes"/>
      <point x="731" y="0"/>
      <point x="801" y="55"/>
      <point x="801" y="152" type="curve" smooth="yes"/>
      <point x="801" y="230"/>
      <point x="755" y="281"/>
      <point x="670" y="296" type="curve"/>
      <point x="732" y="316"/>
      <point x="776" y="342"/>
      <point x="776" y="414" type="curve" smooth="yes"/>
      <point x="776" y="490"/>
      <point x="714" y="537"/>
      <point x="624" y="537" type="curve" smooth="yes"/>
      <point x="551" y="537"/>
      <point x="495" y="512"/>
      <point x="449" y="407" type="curve" smooth="yes"/>
      <point x="304" y="70" type="line"/>
      <point x="292" y="107"/>
      <point x="271" y="171"/>
      <point x="254" y="220" type="curve" smooth="yes"/>
      <point x="189" y="409" type="line" smooth="yes"/>
      <point x="184" y="424"/>
      <point x="181" y="435"/>
      <point x="181" y="446" type="curve" smooth="yes"/>
      <point x="181" y="479"/>
      <point x="201" y="494"/>
      <point x="241" y="494" type="curve" smooth="yes"/>
      <point x="254" y="494" type="line"/>
      <point x="254" y="536" type="line"/>
      <point x="4" y="536" type="line"/>
      <point x="4" y="494" type="line"/>
      <point x="46" y="494"/>
      <point x="63" y="483"/>
    </contour>
  </outline>
</glyph>
<glyph name="uniA7C7" format="2">
  <advance width="727"/>
  <unicode hex="A7C7"/>
  <anchor x="353" y="0" name="bottom"/>
  <anchor x="364" y="357" name="center"/>
  <anchor x="364" y="714" name="top"/>
  <anchor x="707" y="714" name="topright"/>
  <outline>
    <contour>
      <point x="163" y="343" type="line"/>
      <point x="640" y="343" type="line"/>
      <point x="640" y="392" type="line"/>
      <point x="163" y="392" type="line"/>
    </contour>
    <component base="D"/>
  </outline>
</glyph>
<glyph name="uniA7C8" format="2">
  <advance width="614"/>
  <unicode hex="A7C8"/>
  <anchor x="307" y="0" name="bottom"/>
  <anchor x="307" y="268" name="center"/>
  <anchor x="447" y="760" name="top"/>
  <anchor x="574" y="760" name="topright"/>
  <outline>
    <contour>
      <point x="85" y="248" type="line"/>
      <point x="476" y="248" type="line"/>
      <point x="476" y="295" type="line"/>
      <point x="85" y="295" type="line"/>
    </contour>
    <component base="d"/>
  </outline>
</glyph>
<glyph name="uniA7C9" format="2">
  <advance width="544"/>
  <unicode hex="A7C9"/>
  <anchor x="272" y="0" name="bottom"/>
  <anchor x="272" y="714" name="top"/>
  <anchor x="524" y="714" name="topright"/>
  <outline>
    <contour>
      <point x="38" y="341" type="line"/>
      <point x="503" y="341" type="line"/>
      <point x="503" y="390" type="line"/>
      <point x="38" y="390" type="line"/>
    </contour>
    <component base="S"/>
  </outline>
</glyph>
<glyph name="uniA7CA" format="2">
  <advance width="451"/>
  <unicode hex="A7CA"/>
  <anchor x="226" y="0" name="bottom"/>
  <anchor x="226" y="536" name="top"/>
  <anchor x="411" y="536" name="topright"/>
  <outline>
    <contour>
      <point x="35" y="249" type="line"/>
      <point x="417" y="249" type="line"/>
      <point x="417" y="296" type="line"/>
      <point x="35" y="296" type="line"/>
    </contour>
    <component base="s"/>
  </outline>
</glyph>
<glyph name="uniAB30" format="2">
  <advance width="614"/>
  <unicode hex="AB30"/>
  <anchor x="307" y="0" name="bottom"/>
  <anchor x="307" y="536" name="top"/>
  <outline>
    <contour>
      <point x="-15" y="261" type="line"/>
      <point x="596" y="261" type="line"/>
      <point x="596" y="308" type="line"/>
      <point x="-15" y="308" type="line"/>
    </contour>
    <component base="uni0251"/>
  </outline>
</glyph>
<glyph name="uniAB69" format="2">
  <advance width="559"/>
  <unicode hex="AB69"/>
  <anchor x="279.85" y="287.4" name="bottom"/>
  <anchor x="6.2" y="287.4" name="bottomleft"/>
  <anchor x="279.85" y="609" name="top"/>
  <outline>
    <contour>
      <point x="375" y="609" type="line"/>
      <point x="282" y="358" type="line"/>
      <point x="193" y="609" type="line"/>
      <point x="141" y="609" type="line"/>
      <point x="58" y="359" type="line" smooth="yes"/>
      <point x="45" y="320"/>
      <point x="34" y="313"/>
      <point x="9" y="313" type="curve" smooth="yes"/>
      <point x="0" y="313" type="line"/>
      <point x="0" y="287" type="line"/>
      <point x="139" y="287" type="line"/>
      <point x="139" y="313" type="line"/>
      <point x="135" y="313" type="line" smooth="yes"/>
      <point x="106" y="313"/>
      <point x="92" y="322"/>
      <point x="92" y="342" type="curve" smooth="yes"/>
      <point x="92" y="349"/>
      <point x="95" y="362"/>
      <point x="98" y="372" type="curve" smooth="yes"/>
      <point x="130" y="469" type="line" smooth="yes"/>
      <point x="143" y="507"/>
      <point x="152" y="536"/>
      <point x="156" y="556" type="curve"/>
      <point x="158" y="556" type="line"/>
      <point x="162" y="536"/>
      <point x="175" y="496"/>
      <point x="186" y="467" type="curve" smooth="yes"/>
      <point x="251" y="289" type="line"/>
      <point x="292" y="289" type="line"/>
      <point x="359" y="470" type="line" smooth="yes"/>
      <point x="370" y="500"/>
      <point x="382" y="536"/>
      <point x="386" y="556" type="curve"/>
      <point x="388" y="556" type="line"/>
      <point x="392" y="536"/>
      <point x="402" y="493"/>
      <point x="411" y="464" type="curve" smooth="yes"/>
      <point x="441" y="364" type="line" smooth="yes"/>
      <point x="444" y="355"/>
      <point x="446" y="344"/>
      <point x="446" y="338" type="curve" smooth="yes"/>
      <point x="446" y="318"/>
      <point x="433" y="313"/>
      <point x="407" y="313" type="curve" smooth="yes"/>
      <point x="399" y="313" type="line"/>
      <point x="399" y="287" type="line"/>
      <point x="559" y="287" type="line"/>
      <point x="559" y="313" type="line"/>
      <point x="557" y="313" type="line" smooth="yes"/>
      <point x="532" y="313"/>
      <point x="521" y="319"/>
      <point x="511" y="344" type="curve"/>
      <point x="426" y="609" type="line"/>
    </contour>
  </outline>
</glyph>
<glyph name="tbar.sc" format="2">
  <advance width="521"/>
  <anchor x="261" y="0" name="bottom"/>
  <anchor x="261" y="571" name="top"/>
  <anchor x="261" y="286" name="center"/>
  <anchor x="501" y="571" name="topright"/>
  <outline>
    <contour>
      <point x="94" y="263" type="line"/>
      <point x="427" y="263" type="line"/>
      <point x="427" y="303" type="line"/>
      <point x="94" y="303" type="line"/>
    </contour>
    <component base="t.sc"/>
  </outline>
</glyph>
<glyph name="uni0268dotless" format="2">
  <advance width="320"/>
  <anchor x="160" y="0" name="bottom"/>
  <anchor x="160" y="536" name="top"/>
  <outline>
    <contour>
      <point x="10" y="261" type="line"/>
      <point x="310" y="261" type="line"/>
      <point x="310" y="308" type="line"/>
      <point x="10" y="308" type="line"/>
    </contour>
    <component base="idotless"/>
  </outline>
</glyph>
